<?xml version="1.0" encoding="UTF-8" standalone="no"?>
<!-- Created with Inkscape (http://www.inkscape.org/) -->

<svg
   xmlns:dc="http://purl.org/dc/elements/1.1/"
   xmlns:cc="http://creativecommons.org/ns#"
   xmlns:rdf="http://www.w3.org/1999/02/22-rdf-syntax-ns#"
   xmlns:svg="http://www.w3.org/2000/svg"
   xmlns="http://www.w3.org/2000/svg"
   xmlns:sodipodi="http://sodipodi.sourceforge.net/DTD/sodipodi-0.dtd"
   xmlns:inkscape="http://www.inkscape.org/namespaces/inkscape"
   width="743.75"
   height="1052.5"
   id="svg2"
   version="1.1"
   inkscape:version="0.48.3.1 r9886"
   sodipodi:docname="error.svg">
  <defs
     id="defs4">
    <marker
       inkscape:stockid="Legs"
       orient="auto"
       refY="0.0"
       refX="0.0"
       id="Legs"
       style="overflow:visible">
      <g
         id="g5599"
         transform="scale(-0.7)">
        <g
           id="g5601"
           transform="matrix(0,-1.000000,-1.000000,0,20.70862,21.31391)">
          <path
             id="path5603"
             d="M 21.221250,20.675360 C 14.311099,25.396517 18.766725,27.282204 15.380179,34.118595"
             style="fill:none;fill-opacity:0.75000000;fill-rule:evenodd;stroke:#000000;stroke-width:1.0000000pt" />
          <path
             id="path5605"
             d="M 21.398110,20.548120 C 20.037601,28.895644 24.934182,29.318060 25.903151,34.373078"
             style="fill:none;fill-opacity:0.75000000;fill-rule:evenodd;stroke:#000000;stroke-width:1.0000000pt" />
        </g>
        <path
           id="path5607"
           d="M -14.090070,-6.7318716 L -15.012238,-2.6884886 L -11.049487,-3.9115586 L -14.090070,-6.7318716 z "
           style="fill:#030300;fill-rule:evenodd;stroke-width:1.0000000pt" />
        <path
           id="path5609"
           d="M -15.215679,4.5567534 L -13.341552,8.2563664 L -11.074678,4.7835114 L -15.215679,4.5567534 z "
           style="fill:#030300;fill-rule:evenodd;stroke-width:1.0000000pt" />
      </g>
    </marker>
    <marker
       inkscape:stockid="Arrow2Lstart"
       orient="auto"
       refY="0.0"
       refX="0.0"
       id="Arrow2Lstart"
       style="overflow:visible">
      <path
         id="path5418"
         style="fill-rule:evenodd;stroke-width:0.62500000;stroke-linejoin:round"
         d="M 8.7185878,4.0337352 L -2.2072895,0.016013256 L 8.7185884,-4.0017078 C 6.9730900,-1.6296469 6.9831476,1.6157441 8.7185878,4.0337352 z "
         transform="scale(1.1) translate(1,0)" />
    </marker>
    <marker
       inkscape:stockid="Arrow1Lstart"
       orient="auto"
       refY="0.0"
       refX="0.0"
       id="Arrow1Lstart"
       style="overflow:visible">
      <path
         id="path5400"
         d="M 0.0,0.0 L 5.0,-5.0 L -12.5,0.0 L 5.0,5.0 L 0.0,0.0 z "
         style="fill-rule:evenodd;stroke:#000000;stroke-width:1.0pt"
         transform="scale(0.8) translate(12.5,0)" />
    </marker>
  </defs>
  <sodipodi:namedview
     id="base"
     pagecolor="#ffffff"
     bordercolor="#666666"
     borderopacity="1.0"
     inkscape:pageopacity="0.0"
     inkscape:pageshadow="2"
     inkscape:zoom="0.49497475"
     inkscape:cx="264.17009"
     inkscape:cy="600.70794"
     inkscape:document-units="px"
     inkscape:current-layer="g7448"
     showgrid="false"
     units="pt"
     inkscape:window-width="1600"
     inkscape:window-height="853"
     inkscape:window-x="-2"
     inkscape:window-y="-3"
     inkscape:window-maximized="1" />
  <metadata
     id="metadata7">
    <rdf:RDF>
      <cc:Work
         rdf:about="">
        <dc:format>image/svg+xml</dc:format>
        <dc:type
           rdf:resource="http://purl.org/dc/dcmitype/StillImage" />
        <dc:title />
      </cc:Work>
    </rdf:RDF>
  </metadata>
  <g
     inkscape:label="Ebene 1"
     inkscape:groupmode="layer"
     id="layer1"
     transform="translate(0,0.13779121)">
    <g
       id="g7448"
       transform="translate(-40.911178,-21.71828)">
      <path
         style="fill:#eeb472;fill-opacity:1;stroke:#e59233;stroke-width:0;stroke-linecap:round;stroke-linejoin:round;stroke-miterlimit:1;stroke-opacity:1"
         d="m 410.57646,186.26461 c -185.72154,0 -336.206412,150.58598 -336.206412,336.30752 0,185.72157 150.484872,336.30751 336.206412,336.30751 185.72157,0 336.30751,-150.58594 336.30751,-336.30751 0,-185.72154 -150.58594,-336.30752 -336.30751,-336.30752 z m 1.21337,72.80259 c 55.785,0 107.37948,18.30891 149.54865,49.24286 L 198.03334,671.6152 c -27.79373,-42.23294 -43.9849,-93.12379 -43.9849,-147.93081 0,-146.15201 115.4187,-264.61719 257.74139,-264.61719 z m 207.18404,107.2827 c 31.70578,43.97607 50.45624,98.40587 50.45624,157.33449 0,146.15204 -115.31756,264.61719 -257.64028,264.61719 -59.86272,0 -114.89229,-21.0583 -158.64897,-56.21978 L 618.97387,366.3499 z"
         id="path7446-4"
         inkscape:connector-curvature="0" />
      <path
         style="fill:#e59233;fill-opacity:1;stroke:#e59233;stroke-width:0;stroke-linecap:round;stroke-linejoin:round;stroke-miterlimit:1;stroke-opacity:1"
         d="m 120.62104,39.45509 c -31.360203,0 -56.770481,25.427351 -56.770481,56.787555 0,31.360205 25.410278,56.787555 56.770481,56.787555 31.36021,0 56.78756,-25.42735 56.78756,-56.787555 0,-31.360204 -25.42735,-56.787555 -56.78756,-56.787555 z m 0.20489,12.293157 c 9.41963,0 18.13167,3.09157 25.25219,8.314954 L 84.731852,121.40947 c -4.69314,-7.13129 -7.427116,-15.72452 -7.427116,-24.979013 0,-24.678649 19.489145,-44.68221 43.521194,-44.68221 z m 34.98427,18.115332 c 5.35372,7.425624 8.51984,16.616425 8.51984,26.566878 0,24.678653 -19.47206,44.682213 -43.50411,44.682213 -10.10819,0 -19.40026,-3.55582 -26.788841,-9.49305 L 155.8102,69.863579 z"
         id="path7446"
         inkscape:connector-curvature="0" />
      <g
         transform="translate(65.073619,41.722625)"
         style="font-size:40px;font-style:normal;font-weight:normal;line-height:125%;letter-spacing:0px;word-spacing:0px;fill:#000000;fill-opacity:1;stroke:none;font-family:Sans"
         id="flowRoot7491">
        <path
           d="m 157.45703,30.83481 18.4375,0 0,3.320313 -14.49219,0 0,8.632812 13.88672,0 0,3.320313 -13.88672,0 0,10.566406 14.84375,0 0,3.320312 -18.78906,0 0,-29.160156"
           style=""
           id="path3001" />
        <path
           d="m 195.28906,41.479341 c -0.40366,-0.234356 -0.84637,-0.403626 -1.32812,-0.507812 -0.46877,-0.117168 -0.9896,-0.175762 -1.5625,-0.175781 -2.03126,1.9e-5 -3.59376,0.664081 -4.6875,1.992187 -1.08074,1.31512 -1.6211,3.20965 -1.6211,5.683594 l 0,11.523437 -3.61328,0 0,-21.875 3.61328,0 0,3.398438 c 0.7552,-1.328105 1.73828,-2.311177 2.94922,-2.949219 1.21093,-0.651019 2.68228,-0.97654 4.41406,-0.976562 0.24739,2.2e-5 0.52082,0.01955 0.82032,0.05859 0.29946,0.02606 0.63149,0.07164 0.99609,0.136719 l 0.0195,3.691406"
           style=""
           id="path3003" />
        <path
           d="m 211.07031,41.479341 c -0.40366,-0.234356 -0.84637,-0.403626 -1.32812,-0.507812 -0.46877,-0.117168 -0.9896,-0.175762 -1.5625,-0.175781 -2.03126,1.9e-5 -3.59376,0.664081 -4.6875,1.992187 -1.08074,1.31512 -1.6211,3.20965 -1.6211,5.683594 l 0,11.523437 -3.61328,0 0,-21.875 3.61328,0 0,3.398438 c 0.7552,-1.328105 1.73828,-2.311177 2.94922,-2.949219 1.21093,-0.651019 2.68228,-0.97654 4.41406,-0.976562 0.24739,2.2e-5 0.52082,0.01955 0.82032,0.05859 0.29946,0.02606 0.63149,0.07164 0.99609,0.136719 l 0.0195,3.691406"
           style=""
           id="path3005" />
        <path
           d="m 222.49609,40.639498 c -1.92709,1.9e-5 -3.45053,0.755227 -4.57031,2.265625 -1.1198,1.497411 -1.67969,3.554701 -1.67969,6.171875 0,2.617195 0.55338,4.680996 1.66016,6.191406 1.11978,1.497399 2.64973,2.246096 4.58984,2.246094 1.91405,2e-6 3.43098,-0.755205 4.55078,-2.265625 1.11978,-1.510411 1.67967,-3.5677 1.67969,-6.171875 -2e-5,-2.591133 -0.55991,-4.641912 -1.67969,-6.152344 -1.1198,-1.523419 -2.63673,-2.285137 -4.55078,-2.285156 m 0,-3.046875 c 3.12499,2.2e-5 5.57941,1.015646 7.36328,3.046875 1.78384,2.031267 2.67576,4.843764 2.67579,8.4375 -3e-5,3.580736 -0.89195,6.393233 -2.67579,8.4375 -1.78387,2.03125 -4.23829,3.046874 -7.36328,3.046875 -3.13803,-1e-6 -5.59896,-1.015625 -7.38281,-3.046875 -1.77084,-2.044267 -2.65625,-4.856764 -2.65625,-8.4375 0,-3.593736 0.88541,-6.406233 2.65625,-8.4375 1.78385,-2.031229 4.24478,-3.046853 7.38281,-3.046875"
           style=""
           id="path3007" />
        <path
           d="m 251.14844,41.479341 c -0.40366,-0.234356 -0.84637,-0.403626 -1.32813,-0.507812 -0.46876,-0.117168 -0.98959,-0.175762 -1.5625,-0.175781 -2.03126,1.9e-5 -3.59376,0.664081 -4.6875,1.992187 -1.08073,1.31512 -1.6211,3.20965 -1.62109,5.683594 l 0,11.523437 -3.61328,0 0,-21.875 3.61328,0 0,3.398438 c 0.7552,-1.328105 1.73827,-2.311177 2.94922,-2.949219 1.21092,-0.651019 2.68228,-0.97654 4.41406,-0.976562 0.24738,2.2e-5 0.52082,0.01955 0.82031,0.05859 0.29947,0.02606 0.6315,0.07164 0.9961,0.136719 l 0.0195,3.691406"
           style=""
           id="path3009" />
        <path
           d="m 265.60156,38.119966 3.59375,0 4.49219,17.070313 4.47266,-17.070313 4.23828,0 4.49218,17.070313 4.47266,-17.070313 3.59375,0 -5.72266,21.875 -4.23828,0 -4.70703,-17.929687 -4.72656,17.929687 -4.23828,0 -5.72266,-21.875"
           style=""
           id="path3011" />
        <path
           d="m 318.60937,46.791841 0,13.203125 -3.59375,0 0,-13.085937 c -1e-5,-2.070297 -0.40366,-3.619775 -1.21093,-4.648438 -0.80731,-1.028627 -2.01825,-1.542949 -3.63282,-1.542968 -1.94011,1.9e-5 -3.47006,0.618508 -4.58984,1.855468 -1.1198,1.236996 -1.67969,2.923192 -1.67969,5.058594 l 0,12.363281 -3.61328,0 0,-30.390625 3.61328,0 0,11.914063 c 0.85937,-1.315084 1.86848,-2.298156 3.02735,-2.949219 1.17186,-0.651019 2.51952,-0.97654 4.04297,-0.976562 2.513,2.2e-5 4.41404,0.781271 5.70312,2.34375 1.28904,1.549497 1.93357,3.834651 1.93359,6.855468"
           style=""
           id="path3013" />
        <path
           d="m 325.81641,38.119966 3.59375,0 0,21.875 -3.59375,0 0,-21.875 m 0,-8.515625 3.59375,0 0,4.550782 -3.59375,0 0,-4.550782"
           style=""
           id="path3015" />
        <path
           d="m 336.91016,29.604341 3.59375,0 0,30.390625 -3.59375,0 0,-30.390625"
           style=""
           id="path3017" />
        <path
           d="m 366.71484,48.159029 0,1.757812 -16.52343,0 c 0.15624,2.473966 0.89843,4.361985 2.22656,5.664063 1.34114,1.289066 3.20311,1.933596 5.58594,1.933594 1.38019,2e-6 2.71482,-0.169268 4.0039,-0.507813 1.30207,-0.338538 2.59113,-0.84635 3.86719,-1.523437 l 0,3.398437 c -1.28908,0.546876 -2.6107,0.963542 -3.96484,1.25 -1.35419,0.286458 -2.72788,0.429687 -4.1211,0.429688 -3.48959,-1e-6 -6.25652,-1.015625 -8.30078,-3.046875 -2.03125,-2.031246 -3.04688,-4.778639 -3.04687,-8.242188 -1e-5,-3.580715 0.96353,-6.419253 2.89062,-8.515625 1.9401,-2.109353 4.55077,-3.16404 7.83203,-3.164062 2.94269,2.2e-5 5.26691,0.950542 6.97266,2.851562 1.71873,1.888039 2.5781,4.459651 2.57812,7.714844 m -3.59375,-1.054688 c -0.0261,-1.966131 -0.57944,-3.535139 -1.66015,-4.707031 -1.06773,-1.171856 -2.487,-1.757793 -4.25782,-1.757812 -2.00521,1.9e-5 -3.61329,0.566425 -4.82421,1.699218 -1.19793,1.132829 -1.88803,2.72788 -2.07032,4.785157 l 12.8125,-0.01953"
           style=""
           id="path3019" />
        <path
           d="m 385.34766,29.604341 3.59375,0 0,30.390625 -3.59375,0 0,-30.390625"
           style=""
           id="path3021" />
        <path
           d="m 404.91797,40.639498 c -1.92709,1.9e-5 -3.45053,0.755227 -4.57031,2.265625 -1.1198,1.497411 -1.6797,3.554701 -1.67969,6.171875 -1e-5,2.617195 0.55338,4.680996 1.66015,6.191406 1.11979,1.497399 2.64973,2.246096 4.58985,2.246094 1.91405,2e-6 3.43097,-0.755205 4.55078,-2.265625 1.11977,-1.510411 1.67967,-3.5677 1.67969,-6.171875 -2e-5,-2.591133 -0.55992,-4.641912 -1.67969,-6.152344 -1.11981,-1.523419 -2.63673,-2.285137 -4.55078,-2.285156 m 0,-3.046875 c 3.12498,2.2e-5 5.57941,1.015646 7.36328,3.046875 1.78383,2.031267 2.67576,4.843764 2.67578,8.4375 -2e-5,3.580736 -0.89195,6.393233 -2.67578,8.4375 -1.78387,2.03125 -4.2383,3.046874 -7.36328,3.046875 -3.13803,-1e-6 -5.59897,-1.015625 -7.38281,-3.046875 -1.77084,-2.044267 -2.65626,-4.856764 -2.65625,-8.4375 -1e-5,-3.593736 0.88541,-6.406233 2.65625,-8.4375 1.78384,-2.031229 4.24478,-3.046853 7.38281,-3.046875"
           style=""
           id="path3023" />
        <path
           d="m 430.83594,48.998873 c -2.90366,1.1e-5 -4.91538,0.332042 -6.03516,0.996093 -1.1198,0.664072 -1.67969,1.796884 -1.67969,3.398438 0,1.276047 0.41666,2.291671 1.25,3.046875 0.84635,0.74219 1.99218,1.113284 3.4375,1.113281 1.99218,3e-6 3.58723,-0.703122 4.78516,-2.109375 1.21092,-1.419265 1.81639,-3.300773 1.81641,-5.644531 l 0,-0.800781 -3.57422,0 m 7.16797,-1.484375 0,12.480468 -3.59375,0 0,-3.320312 c -0.82033,1.328127 -1.84247,2.311199 -3.06641,2.949219 -1.22397,0.624999 -2.72137,0.937499 -4.49219,0.9375 -2.23959,-1e-6 -4.02344,-0.625 -5.35156,-1.875 -1.31511,-1.263019 -1.97266,-2.949215 -1.97266,-5.058594 0,-2.460929 0.82031,-4.316396 2.46094,-5.566406 1.65364,-1.249987 4.11458,-1.874986 7.38281,-1.875 l 5.03907,0 0,-0.351563 c -2e-5,-1.65363 -0.5469,-2.92967 -1.64063,-3.828125 -1.08074,-0.911439 -2.60418,-1.367168 -4.57031,-1.367187 -1.25001,1.9e-5 -2.46746,0.149758 -3.65235,0.449218 -1.1849,0.299498 -2.32422,0.748717 -3.41796,1.347657 l 0,-3.320313 c 1.3151,-0.507791 2.59114,-0.885395 3.82812,-1.132812 1.23697,-0.260395 2.4414,-0.390603 3.61328,-0.390625 3.16405,2.2e-5 5.52733,0.820334 7.08985,2.460937 1.56248,1.640643 2.34373,4.12762 2.34375,7.460938"
           style=""
           id="path3025" />
        <path
           d="m 459.82031,41.440279 0,-11.835938 3.59375,0 0,30.390625 -3.59375,0 0,-3.28125 c -0.75522,1.302086 -1.71225,2.272137 -2.87109,2.910157 -1.14585,0.624999 -2.52606,0.937499 -4.14063,0.9375 -2.64323,-1e-6 -4.79818,-1.054687 -6.46484,-3.164063 -1.65365,-2.10937 -2.48047,-4.882805 -2.48047,-8.320312 0,-3.437486 0.82682,-6.210921 2.48047,-8.320313 1.66666,-2.109353 3.82161,-3.16404 6.46484,-3.164062 1.61457,2.2e-5 2.99478,0.319032 4.14063,0.957031 1.15884,0.625021 2.11587,1.588561 2.87109,2.890625 m -12.24609,7.636719 c -1e-5,2.643237 0.54036,4.720058 1.62109,6.230468 1.09374,1.497399 2.59114,2.246097 4.49219,2.246094 1.90103,3e-6 3.39842,-0.748695 4.49219,-2.246094 1.09373,-1.51041 1.6406,-3.587231 1.64062,-6.230468 -2e-5,-2.643216 -0.54689,-4.713526 -1.64062,-6.210938 -1.09377,-1.510398 -2.59116,-2.265605 -4.49219,-2.265625 -1.90105,2e-5 -3.39845,0.755227 -4.49219,2.265625 -1.08073,1.497412 -1.6211,3.567722 -1.62109,6.210938"
           style=""
           id="path3027" />
        <path
           d="m 470.81641,38.119966 3.59375,0 0,21.875 -3.59375,0 0,-21.875 m 0,-8.515625 3.59375,0 0,4.550782 -3.59375,0 0,-4.550782"
           style=""
           id="path3029" />
        <path
           d="m 500.09375,46.791841 0,13.203125 -3.59375,0 0,-13.085937 c -2e-5,-2.070297 -0.40366,-3.619775 -1.21094,-4.648438 -0.80731,-1.028627 -2.01824,-1.542949 -3.63281,-1.542968 -1.94012,1.9e-5 -3.47006,0.618508 -4.58984,1.855468 -1.1198,1.236996 -1.6797,2.923192 -1.67969,5.058594 l 0,12.363281 -3.61328,0 0,-21.875 3.61328,0 0,3.398438 c 0.85937,-1.315084 1.86848,-2.298156 3.02734,-2.949219 1.17187,-0.651019 2.51952,-0.97654 4.04297,-0.976562 2.51301,2.2e-5 4.41405,0.781271 5.70313,2.34375 1.28904,1.549497 1.93357,3.834651 1.93359,6.855468"
           style=""
           id="path3031" />
        <path
           d="m 521.69531,48.80356 c -2e-5,-2.604153 -0.54038,-4.62238 -1.62109,-6.054687 -1.06773,-1.432273 -2.57163,-2.148418 -4.51172,-2.148438 -1.92709,2e-5 -3.431,0.716165 -4.51172,2.148438 -1.06771,1.432307 -1.60157,3.450534 -1.60156,6.054687 -1e-5,2.591155 0.53385,4.602871 1.60156,6.035156 1.08072,1.432296 2.58463,2.148441 4.51172,2.148438 1.94009,3e-6 3.44399,-0.716142 4.51172,-2.148438 1.08071,-1.432285 1.62107,-3.444001 1.62109,-6.035156 m 3.59375,8.476563 c -2e-5,3.723957 -0.82684,6.490881 -2.48047,8.300781 -1.65366,1.822909 -4.18621,2.734367 -7.59765,2.734375 -1.26303,-8e-6 -2.45444,-0.09767 -3.57422,-0.292969 -1.1198,-0.182299 -2.20704,-0.468757 -3.26172,-0.859375 l 0,-3.496094 c 1.05468,0.572913 2.09635,0.99609 3.125,1.269532 1.02864,0.273432 2.07681,0.410151 3.14453,0.410156 2.35676,-5e-6 4.12108,-0.618494 5.29297,-1.855469 1.17186,-1.22396 1.75779,-3.079427 1.75781,-5.566406 l 0,-1.777344 c -0.7422,1.289065 -1.69272,2.252606 -2.85156,2.890625 -1.15887,0.638021 -2.54559,0.957031 -4.16016,0.957031 -2.6823,0 -4.84375,-1.022134 -6.48437,-3.066406 -1.64063,-2.044266 -2.46094,-4.752596 -2.46094,-8.125 0,-3.385402 0.82031,-6.100243 2.46094,-8.144531 1.64062,-2.04425 3.80207,-3.066384 6.48437,-3.066406 1.61457,2.2e-5 3.00129,0.319032 4.16016,0.957031 1.15884,0.638042 2.10936,1.601582 2.85156,2.890625 l 0,-3.320313 3.59375,0 0,19.160157"
           style=""
           id="path3033" />
        <path
           d="m 548.90234,56.713716 0,11.601563 -3.61328,0 0,-30.195313 3.61328,0 0,3.320313 c 0.7552,-1.302064 1.70572,-2.265604 2.85157,-2.890625 1.15884,-0.637999 2.53905,-0.957009 4.14062,-0.957031 2.65623,2.2e-5 4.81118,1.054709 6.46484,3.164062 1.66665,2.109392 2.49998,4.882827 2.5,8.320313 -2e-5,3.437507 -0.83335,6.210942 -2.5,8.320312 -1.65366,2.109376 -3.80861,3.164062 -6.46484,3.164063 -1.60157,-1e-6 -2.98178,-0.312501 -4.14062,-0.9375 -1.14585,-0.63802 -2.09637,-1.608071 -2.85157,-2.910157 m 12.22657,-7.636718 c -2e-5,-2.643216 -0.5469,-4.713526 -1.64063,-6.210938 -1.08074,-1.510398 -2.57163,-2.265605 -4.47266,-2.265625 -1.90105,2e-5 -3.39844,0.755227 -4.49218,2.265625 -1.08074,1.497412 -1.6211,3.567722 -1.6211,6.210938 0,2.643237 0.54036,4.720058 1.6211,6.230468 1.09374,1.497399 2.59113,2.246097 4.49218,2.246094 1.90103,3e-6 3.39192,-0.748695 4.47266,-2.246094 1.09373,-1.51041 1.64061,-3.587231 1.64063,-6.230468"
           style=""
           id="path3035" />
        <path
           d="m 580.75781,48.998873 c -2.90365,1.1e-5 -4.91537,0.332042 -6.03515,0.996093 -1.1198,0.664072 -1.6797,1.796884 -1.67969,3.398438 -10e-6,1.276047 0.41666,2.291671 1.25,3.046875 0.84634,0.74219 1.99218,1.113284 3.4375,1.113281 1.99217,3e-6 3.58722,-0.703122 4.78515,-2.109375 1.21093,-1.419265 1.81639,-3.300773 1.81641,-5.644531 l 0,-0.800781 -3.57422,0 m 7.16797,-1.484375 0,12.480468 -3.59375,0 0,-3.320312 c -0.82033,1.328127 -1.84246,2.311199 -3.06641,2.949219 -1.22397,0.624999 -2.72136,0.937499 -4.49218,0.9375 -2.23959,-1e-6 -4.02345,-0.625 -5.35157,-1.875 -1.3151,-1.263019 -1.97265,-2.949215 -1.97265,-5.058594 0,-2.460929 0.82031,-4.316396 2.46094,-5.566406 1.65364,-1.249987 4.11457,-1.874986 7.38281,-1.875 l 5.03906,0 0,-0.351563 c -2e-5,-1.65363 -0.54689,-2.92967 -1.64062,-3.828125 -1.08075,-0.911439 -2.60418,-1.367168 -4.57032,-1.367187 -1.25001,1.9e-5 -2.46745,0.149758 -3.65234,0.449218 -1.1849,0.299498 -2.32422,0.748717 -3.41797,1.347657 l 0,-3.320313 c 1.3151,-0.507791 2.59114,-0.885395 3.82813,-1.132812 1.23697,-0.260395 2.44139,-0.390603 3.61328,-0.390625 3.16405,2.2e-5 5.52732,0.820334 7.08984,2.460937 1.56248,1.640643 2.34373,4.12762 2.34375,7.460938"
           style=""
           id="path3037" />
        <path
           d="m 609.74219,48.80356 c -2e-5,-2.604153 -0.54038,-4.62238 -1.6211,-6.054687 -1.06772,-1.432273 -2.57162,-2.148418 -4.51172,-2.148438 -1.92709,2e-5 -3.43099,0.716165 -4.51171,2.148438 -1.06772,1.432307 -1.60157,3.450534 -1.60157,6.054687 0,2.591155 0.53385,4.602871 1.60157,6.035156 1.08072,1.432296 2.58462,2.148441 4.51171,2.148438 1.9401,3e-6 3.444,-0.716142 4.51172,-2.148438 1.08072,-1.432285 1.62108,-3.444001 1.6211,-6.035156 m 3.59375,8.476563 c -2e-5,3.723957 -0.82685,6.490881 -2.48047,8.300781 -1.65366,1.822909 -4.18621,2.734367 -7.59766,2.734375 -1.26303,-8e-6 -2.45443,-0.09767 -3.57422,-0.292969 -1.11979,-0.182299 -2.20703,-0.468757 -3.26172,-0.859375 l 0,-3.496094 c 1.05469,0.572913 2.09635,0.99609 3.125,1.269532 1.02864,0.273432 2.07682,0.410151 3.14454,0.410156 2.35675,-5e-6 4.12107,-0.618494 5.29296,-1.855469 1.17186,-1.22396 1.7578,-3.079427 1.75782,-5.566406 l 0,-1.777344 c -0.74221,1.289065 -1.69273,2.252606 -2.85157,2.890625 -1.15886,0.638021 -2.54558,0.957031 -4.16015,0.957031 -2.6823,0 -4.84376,-1.022134 -6.48438,-3.066406 -1.64062,-2.044266 -2.46094,-4.752596 -2.46093,-8.125 -10e-6,-3.385402 0.82031,-6.100243 2.46093,-8.144531 1.64062,-2.04425 3.80208,-3.066384 6.48438,-3.066406 1.61457,2.2e-5 3.00129,0.319032 4.16015,0.957031 1.15884,0.638042 2.10936,1.601582 2.85157,2.890625 l 0,-3.320313 3.59375,0 0,19.160157"
           style=""
           id="path3039" />
        <path
           d="m 639.44922,48.159029 0,1.757812 -16.52344,0 c 0.15625,2.473966 0.89843,4.361985 2.22656,5.664063 1.34114,1.289066 3.20312,1.933596 5.58594,1.933594 1.38019,2e-6 2.71483,-0.169268 4.00391,-0.507813 1.30206,-0.338538 2.59112,-0.84635 3.86718,-1.523437 l 0,3.398437 c -1.28908,0.546876 -2.61069,0.963542 -3.96484,1.25 -1.35418,0.286458 -2.72788,0.429687 -4.12109,0.429688 -3.4896,-1e-6 -6.25652,-1.015625 -8.30078,-3.046875 -2.03126,-2.031246 -3.04688,-4.778639 -3.04688,-8.242188 0,-3.580715 0.96354,-6.419253 2.89063,-8.515625 1.94009,-2.109353 4.55077,-3.16404 7.83203,-3.164062 2.94269,2.2e-5 5.26691,0.950542 6.97265,2.851562 1.71873,1.888039 2.57811,4.459651 2.57813,7.714844 m -3.59375,-1.054688 c -0.0261,-1.966131 -0.57945,-3.535139 -1.66016,-4.707031 -1.06772,-1.171856 -2.48699,-1.757793 -4.25781,-1.757812 -2.00522,1.9e-5 -3.61329,0.566425 -4.82422,1.699218 -1.19792,1.132829 -1.88803,2.72788 -2.07031,4.785157 l 12.8125,-0.01953"
           style=""
           id="path3041" />
        <path
           d="m 647.61328,55.034029 3.96484,0 0,4.960937 -3.96484,0 0,-4.960937 m 0,-24.199219 3.96484,0 0,12.792969 -0.39062,6.972656 -3.16406,0 -0.41016,-6.972656 0,-12.792969"
           style=""
           id="path3043" />
      </g>
    </g>
  </g>
</svg>
